<svg xmlns="http://www.w3.org/2000/svg" viewBox="0 0 100 100"><defs><style>.cls-1{fill:#f6f7fa;}</style></defs><title>Asset 12</title><g id="Layer_2" data-name="Layer 2"><g id="Layer_1-2" data-name="Layer 1"><path class="cls-1" d="M60.69,52.19a3.34,3.34,0,0,0-3.35,2.87c0,1.32,1.5,1.9,3.35,1.9S64,56.37,64,55.06A3.34,3.34,0,0,0,60.69,52.19Z"/><path class="cls-1" d="M39,52.19a3.34,3.34,0,0,0-3.35,2.87c0,1.32,1.5,1.9,3.35,1.9s3.35-.58,3.35-1.9A3.34,3.34,0,0,0,39,52.19Z"/><path class="cls-1" d="M49.83,64.79c-2.56,0-4.64.32-4.64,2.1a5,5,0,0,0,4.64,4.36,5,5,0,0,0,4.64-4.36C54.47,65.1,52.4,64.79,49.83,64.79Z"/><path class="cls-1" d="M50,0a50,50,0,1,0,50,50A50,50,0,0,0,50,0ZM75.8,41.57a5.7,5.7,0,0,1-1.73,1.21A21.92,21.92,0,0,1,74.66,48c0,4.19-5.14,8.51-7,12.47-4.17,9-8.34,16.23-17.85,16.23S36.41,69.43,32.24,60.43C30.41,56.46,25,52.15,25,48a21.91,21.91,0,0,1,.59-5.17,5.7,5.7,0,0,1-1.73-1.21c-2.68-2.68-3.44-7.79-.76-10.47s7.75-1.93,10.44.73c4.36-2.75,10.05-4.1,16.28-4.1s11.93,1.35,16.28,4.1c2.69-2.66,7.77-3.4,10.44-.73S78.48,38.89,75.8,41.57Z"/></g></g></svg>